<svg viewBox="0 0 32 32" xmlns="http://www.w3.org/2000/svg">
  <defs>
    <linearGradient id="flame-grad" x1="16" y1="2" x2="16" y2="20" gradientUnits="userSpaceOnUse">
      <stop offset="0%" stop-color="#FFD580"/>
      <stop offset="40%" stop-color="#FF8437"/>
      <stop offset="100%" stop-color="#FF4500"/>
    </linearGradient>
  </defs>

  <!-- Chevron 1 — deep red -->
  <path d="M27 19.5v3.2L16 28.9 5 22.7v-3.2l11 6.2z" fill="#c0200a"/>
  <!-- Chevron 2 — darker deep red -->
  <path d="M27 24.7v3.2L16 34 5 27.9v-3.2l11 6.2z" fill="#8f1506"/>
  <!-- Flame — gradient -->
  <path d="M16.1 22.5l10.9-6.5c-.4-1.6-1.1-3.1-2-4.5 1.5 5.8-8 6.9-5.7.5 1.7-4.9 6.1-5.9-3-14.6.1 5.4-1.4 8.7-2.9 10.8-2.7 3.8-5.6 3.7-7.4 7.6q-.1.1-.3.6z" fill="url(#flame-grad)"/>
</svg>
